<svg width="30" height="30" viewBox="0 0 30 30" fill="none" xmlns="http://www.w3.org/2000/svg">
<path fill-rule="evenodd" clip-rule="evenodd" d="M14.3531 27.9675L15 26.7188L15.6469 27.9675C15.4469 28.0708 15.2251 28.1246 15 28.1246C14.7749 28.1246 14.5531 28.0708 14.3531 27.9675ZM14.3531 27.9675L15 26.7188L15.6469 27.9675L15.6506 27.9656L15.6619 27.96L15.6956 27.9413C15.8918 27.8395 16.0856 27.7332 16.2769 27.6225C18.5613 26.3215 20.7167 24.806 22.7138 23.0963C26.1675 20.1206 30 15.6563 30 10.3125C30 5.3175 26.0888 1.875 22.0312 1.875C19.1306 1.875 16.5881 3.37875 15 5.6625C13.4119 3.37875 10.8694 1.875 7.96875 1.875C3.91125 1.875 0 5.3175 0 10.3125C0 15.6563 3.83437 20.1206 7.28438 23.0963C9.45128 24.9487 11.8038 26.5723 14.3044 27.9413L14.3381 27.96L14.3494 27.9656H14.3531V27.9675Z" fill="#CC2424"/>
</svg>
